<svg id="SvgjsSvg1000" xmlns="http://www.w3.org/2000/svg" version="1.1" xmlns:xlink="http://www.w3.org/1999/xlink" xmlns:svgjs="http://svgjs.com/svgjs" width="17" height="31" viewBox="0 0 17 31">
	<title>ic-face</title>
	<desc>Created with Avocode.</desc>
	<defs id="SvgjsDefs1001"></defs>
	<path id="SvgjsPath1007" d="M1395.36 2491.01L1391.28 2491C1386.7 2491 1383.74 2493.99 1383.74 2498.63L1383.74 2502.15L1379.64 2502.15C1379.2900000000002 2502.15 1379 2502.4300000000003 1379 2502.78L1379 2507.88C1379 2508.2200000000003 1379.29 2508.51 1379.64 2508.51L1383.74 2508.51L1383.74 2521.3700000000003C1383.74 2521.7200000000003 1384.03 2522.0000000000005 1384.38 2522.0000000000005L1389.73 2522.0000000000005C1390.08 2522.0000000000005 1390.3700000000001 2521.7200000000003 1390.3700000000001 2521.3700000000003L1390.3700000000001 2508.51L1395.17 2508.51C1395.52 2508.51 1395.8100000000002 2508.2200000000003 1395.8100000000002 2507.88L1395.8100000000002 2502.78C1395.8100000000002 2502.61 1395.7400000000002 2502.4500000000003 1395.6200000000001 2502.3300000000004C1395.5000000000002 2502.2100000000005 1395.3400000000001 2502.1500000000005 1395.17 2502.1500000000005L1390.3700000000001 2502.1500000000005L1390.3700000000001 2499.1600000000008C1390.3700000000001 2497.730000000001 1390.72 2497.000000000001 1392.6100000000001 2497.000000000001L1395.3600000000001 2497.000000000001C1395.71 2497.000000000001 1396.0000000000002 2496.7200000000007 1396.0000000000002 2496.370000000001L1396.0000000000002 2491.640000000001C1396.0000000000002 2491.290000000001 1395.7100000000003 2491.0100000000007 1395.3600000000001 2491.0100000000007Z " fill="#868686" fill-opacity="1" transform="matrix(1,0,0,1,-1379,-2491)"></path>
</svg>