<svg id="SvgjsSvg1008" xmlns="http://www.w3.org/2000/svg" version="1.1" xmlns:xlink="http://www.w3.org/1999/xlink" xmlns:svgjs="http://svgjs.com/svgjs" width="40" height="31" viewBox="0 0 40 31">
	<title>ic-google plus</title>
	<desc>Created with Avocode.</desc>
	<defs id="SvgjsDefs1009"></defs>
	<path id="SvgjsPath1010" d="M1451.37 2504.78L1451.37 2509.6000000000004L1460.11 2509.6000000000004C1458.81 2513.7900000000004 1454.9299999999998 2516.8300000000004 1450.35 2516.8300000000004C1444.6999999999998 2516.8300000000004 1440.12 2512.2100000000005 1440.12 2506.5000000000005C1440.12 2500.7900000000004 1444.6999999999998 2496.1700000000005 1450.35 2496.1700000000005C1453.1899999999998 2496.1700000000005 1455.77 2497.3400000000006 1457.62 2499.2300000000005L1461.09 2495.4300000000003C1458.32 2492.6900000000005 1454.53 2491.0000000000005 1450.35 2491.0000000000005C1441.87 2491.0000000000005 1435 2497.9400000000005 1435 2506.5000000000005C1435 2515.0600000000004 1441.87 2522.0000000000005 1450.35 2522.0000000000005C1457.77 2522.0000000000005 1464.28 2516.6700000000005 1465.6999999999998 2509.6000000000004L1465.6999999999998 2504.78ZM1475 2504.77L1472.07 2504.77L1472.07 2501.81L1469.56 2501.81L1469.56 2504.77L1466.6299999999999 2504.77L1466.6299999999999 2507.31L1469.56 2507.31L1469.56 2510.2599999999998L1472.07 2510.2599999999998L1472.07 2507.31L1475 2507.31Z " fill="#868686" fill-opacity="1" transform="matrix(1,0,0,1,-1435,-2491)"></path>
</svg>