<svg id="SvgjsSvg1011" xmlns="http://www.w3.org/2000/svg" version="1.1" xmlns:xlink="http://www.w3.org/1999/xlink" xmlns:svgjs="http://svgjs.com/svgjs" width="31" height="31" viewBox="0 0 31 31">
	<title>ic-instagram</title>
	<desc>Created with Avocode.</desc>
	<defs id="SvgjsDefs1012"></defs>
	<path id="SvgjsPath1013" d="M1536.44 2491L1522.55 2491C1517.84 2491 1514 2494.84 1514 2499.55L1514 2513.44C1514 2518.16 1517.84 2522 1522.55 2522L1536.44 2522C1541.16 2522 1545 2518.16 1545 2513.44L1545 2499.55C1545 2494.84 1541.16 2491 1536.44 2491ZM1536.44 2519.25L1522.55 2519.25C1519.35 2519.25 1516.75 2516.65 1516.75 2513.44L1516.75 2499.55C1516.75 2496.3500000000004 1519.35 2493.75 1522.55 2493.75L1536.44 2493.75C1539.65 2493.75 1542.25 2496.35 1542.25 2499.55L1542.25 2513.44C1542.25 2516.65 1539.65 2519.25 1536.44 2519.25ZM1529.5 2498.51C1525.1 2498.51 1521.51 2502.1000000000004 1521.51 2506.5C1521.51 2510.9 1525.1 2514.49 1529.5 2514.49C1533.9 2514.49 1537.49 2510.8999999999996 1537.49 2506.5C1537.49 2502.1 1533.9 2498.51 1529.5 2498.51ZM1529.5 2511.74C1526.61 2511.74 1524.26 2509.39 1524.26 2506.5C1524.26 2503.61 1526.61 2501.26 1529.5 2501.26C1532.39 2501.26 1534.74 2503.61 1534.74 2506.5C1534.74 2509.39 1532.39 2511.74 1529.5 2511.74ZM1537.82 2496.18C1537.29 2496.18 1536.77 2496.39 1536.3999999999999 2496.77C1536.0199999999998 2497.14 1535.81 2497.67 1535.81 2498.2C1535.81 2498.73 1536.02 2499.25 1536.3999999999999 2499.62C1536.7699999999998 2500 1537.29 2500.21 1537.82 2500.21C1538.35 2500.21 1538.87 2500 1539.25 2499.62C1539.63 2499.25 1539.84 2498.73 1539.84 2498.2C1539.84 2497.6699999999996 1539.6299999999999 2497.14 1539.25 2496.77C1538.88 2496.39 1538.35 2496.18 1537.82 2496.18Z " fill="#868686" fill-opacity="1" transform="matrix(1,0,0,1,-1514,-2491)"></path>
</svg>