<?xml version="1.0" encoding="UTF-8"?><!DOCTYPE svg PUBLIC "-//W3C//DTD SVG 1.1//EN" "http://www.w3.org/Graphics/SVG/1.1/DTD/svg11.dtd"><svg xmlns="http://www.w3.org/2000/svg"><symbol id="icon-face" viewBox="0 0 17 31">
    <title>
        ic-face
    </title>
    <path d="M16.36.01L12.28 0C7.7 0 4.74 2.99 4.74 7.63v3.52H.64c-.35 0-.64.28-.64.63v5.1c0 .34.29.63.64.63h4.1v12.86c0 .35.29.63.64.63h5.35c.35 0 .64-.28.64-.63V17.51h4.8c.35 0 .64-.29.64-.63v-5.1c0-.17-.07-.33-.19-.45a.627.627 0 0 0-.45-.18h-4.8V8.16c0-1.43.35-2.16 2.24-2.16h2.75c.35 0 .64-.28.64-.63V.64c0-.35-.29-.63-.64-.63z"/>
</symbol><symbol id="icon-facebook" viewBox="0 0 10 19">
    <title>
        facebook
    </title>
    <path d="M9.766.157v2.946H8.014c-.64 0-1.071.134-1.295.402-.223.268-.335.67-.335 1.205v2.11h3.27l-.435 3.303H6.384v8.471H2.97v-8.47H.123V6.82H2.97V4.387c0-1.384.387-2.457 1.161-3.22C4.904.404 5.934.023 7.222.023c1.093 0 1.941.045 2.544.134z" fill-rule="evenodd"/>
</symbol><symbol id="icon-google-plus" viewBox="0 0 40 31">
    <title>
        ic-google plus
    </title>
    <path d="M16.37 13.78v4.82h8.74c-1.3 4.19-5.18 7.23-9.76 7.23-5.65 0-10.23-4.62-10.23-10.33S9.7 5.17 15.35 5.17c2.84 0 5.42 1.17 7.27 3.06l3.47-3.8C23.32 1.69 19.53 0 15.35 0 6.87 0 0 6.94 0 15.5 0 24.06 6.87 31 15.35 31c7.42 0 13.93-5.33 15.35-12.4v-4.82zM40 13.77h-2.93v-2.96h-2.51v2.96h-2.93v2.54h2.93v2.95h2.51v-2.95H40z"/>
</symbol><symbol id="icon-instagram" viewBox="0 0 31 31">
    <title>
        ic-instagram
    </title>
    <path d="M22.44 0H8.55C3.84 0 0 3.84 0 8.55v13.89C0 27.16 3.84 31 8.55 31h13.89c4.72 0 8.56-3.84 8.56-8.56V8.55C31 3.84 27.16 0 22.44 0zm0 28.25H8.55c-3.2 0-5.8-2.6-5.8-5.81V8.55c0-3.2 2.6-5.8 5.8-5.8h13.89c3.21 0 5.81 2.6 5.81 5.8v13.89c0 3.21-2.6 5.81-5.81 5.81zM15.5 7.51c-4.4 0-7.99 3.59-7.99 7.99s3.59 7.99 7.99 7.99 7.99-3.59 7.99-7.99-3.59-7.99-7.99-7.99zm0 13.23c-2.89 0-5.24-2.35-5.24-5.24s2.35-5.24 5.24-5.24 5.24 2.35 5.24 5.24-2.35 5.24-5.24 5.24zm8.32-15.56c-.53 0-1.05.21-1.42.59-.38.37-.59.9-.59 1.43 0 .53.21 1.05.59 1.42.37.38.89.59 1.42.59.53 0 1.05-.21 1.43-.59.38-.37.59-.89.59-1.42a2.012 2.012 0 0 0-2.02-2.02z"/>
</symbol></svg>